<?xml version="1.0" standalone="no"?>
<!DOCTYPE svg PUBLIC "-//W3C//DTD SVG 20010904//EN"
 "http://www.w3.org/TR/2001/REC-SVG-20010904/DTD/svg10.dtd">
<svg version="1.0" xmlns="http://www.w3.org/2000/svg"
 width="512.000000pt" height="512.000000pt" viewBox="0 0 512.000000 512.000000"
 preserveAspectRatio="xMidYMid meet">
<metadata>
Created by potrace 1.14, written by Peter Selinger 2001-2017
</metadata>
<g transform="translate(0.000000,512.000000) scale(0.100000,-0.100000)"
fill="#000000" stroke="none">
<path d="M2504 5039 c-17 -19 -19 -37 -19 -155 0 -120 2 -136 20 -153 35 -34
88 -31 111 5 22 33 28 244 8 285 -22 44 -87 54 -120 18z"/>
<path d="M1742 4730 c-26 -11 -44 -52 -36 -84 3 -13 44 -62 92 -109 102 -101
131 -113 176 -72 45 41 33 75 -57 166 -109 111 -123 119 -175 99z"/>
<path d="M3215 4644 c-75 -75 -95 -101 -95 -123 0 -39 28 -71 68 -76 30 -3 41
4 119 78 47 45 91 95 98 112 22 51 -12 104 -67 105 -22 0 -48 -21 -123 -96z"/>
<path d="M2480 4583 c-123 -18 -234 -59 -330 -124 -60 -40 -156 -132 -191
-183 l-22 -33 -701 0 -701 0 -58 -28 c-96 -48 -148 -129 -151 -239 l-2 -61
-55 -29 c-75 -41 -170 -138 -208 -214 -63 -124 -59 -42 -60 -1502 -1 -883 3
-1357 10 -1399 31 -196 195 -365 397 -412 32 -7 320 -11 892 -11 465 0 853 -2
863 -5 9 -2 31 -32 48 -65 41 -82 100 -142 173 -178 198 -96 426 -20 521 174
16 32 37 61 49 66 12 4 399 8 861 8 462 1 856 3 874 6 51 7 153 46 177 68 11
10 25 18 30 18 16 0 104 92 141 147 19 28 45 84 58 125 l24 73 1 618 1 617
-25 25 c-14 14 -31 25 -38 25 -11 0 -14 23 -14 100 0 78 3 100 13 100 8 0 25
11 39 25 l24 24 -1 593 c-1 641 -1 642 -56 754 -36 74 -123 165 -202 212 l-64
38 -3 64 c-7 121 -83 223 -188 251 -44 12 -384 17 -428 6 -16 -4 -31 -19 -40
-37 l-13 -30 -103 0 c-66 0 -101 4 -97 10 11 18 -42 60 -77 61 -18 0 -176 1
-350 1 l-317 1 -25 36 c-25 38 -82 98 -133 142 -42 37 -163 109 -183 109 -9 0
-20 4 -25 9 -29 27 -251 56 -335 44z"/>
</g>
</svg>
